<?xml version="1.0" encoding="UTF-8"?>
<!DOCTYPE svg PUBLIC "-//W3C//DTD SVG 1.1//EN" "http://www.w3.org/Graphics/SVG/1.1/DTD/svg11.dtd">
<svg xmlns="http://www.w3.org/2000/svg" version="1.1" width="512px" height="512px" style="shape-rendering:geometricPrecision; text-rendering:geometricPrecision; image-rendering:optimizeQuality; fill-rule:evenodd; clip-rule:evenodd" xmlns:xlink="http://www.w3.org/1999/xlink">
<g><path style="opacity:1" fill="#5c000f" d="M -0.5,-0.5 C 170.167,-0.5 340.833,-0.5 511.5,-0.5C 511.5,170.167 511.5,340.833 511.5,511.5C 340.833,511.5 170.167,511.5 -0.5,511.5C -0.5,340.833 -0.5,170.167 -0.5,-0.5 Z"/></g>
<g><path style="opacity:1" fill="#2a1d1c" d="M 413.5,16.5 C 306.332,16.1672 199.332,16.5005 92.5,17.5C 92.1667,17.5 91.8333,17.5 91.5,17.5C 144.829,16.1667 198.496,15.5 252.5,15.5C 306.334,15.5 360.001,15.8333 413.5,16.5 Z"/></g>
<g><path style="opacity:1" fill="#016b4b" d="M 94.5,227.5 C 94.8836,223.511 94.217,219.845 92.5,216.5C 92.5,215.833 92.5,215.167 92.5,214.5C 92.5,149.167 92.5,83.8333 92.5,18.5C 94.8568,18.3367 97.1902,18.5034 99.5,19C 97.2303,22.0279 96.0636,25.5279 96,29.5C 95.6667,28.8333 95.3333,28.1667 95,27.5C 94.3333,89.8333 94.3333,152.167 95,214.5C 95.3333,153.5 95.6667,92.5 96,31.5C 96.6667,93.1667 96.6667,154.833 96,216.5C 95.8227,220.356 95.3227,224.023 94.5,227.5 Z"/></g>
<g><path style="opacity:1" fill="#450915" d="M 91.5,17.5 C 91.1675,83.3355 91.5009,149.002 92.5,214.5C 92.5,215.167 92.5,215.833 92.5,216.5C 92.5,218.833 92.5,221.167 92.5,223.5C 91.6862,221.369 91.1862,219.036 91,216.5C 90.1679,149.999 90.3346,83.6654 91.5,17.5 Z"/></g>
<g><path style="opacity:1" fill="#284d3e" d="M 92.5,17.5 C 199.332,16.5005 306.332,16.1672 413.5,16.5C 414.825,83.3604 414.825,150.36 413.5,217.5C 413.167,217.5 412.833,217.5 412.5,217.5C 412.5,216.5 412.5,215.5 412.5,214.5C 412.5,148.833 412.5,83.1667 412.5,17.5C 408.167,17.5 403.833,17.5 399.5,17.5C 297.167,17.5 194.833,17.5 92.5,17.5 Z"/></g>
<g><path style="opacity:1" fill="#006a4e" d="M 399.5,17.5 C 403.833,17.5 408.167,17.5 412.5,17.5C 412.5,83.1667 412.5,148.833 412.5,214.5C 411.265,214.279 410.265,213.612 409.5,212.5C 408.5,152.17 408.167,91.837 408.5,31.5C 407.167,31.5 405.833,31.5 404.5,31.5C 404.784,29.5853 404.451,27.9187 403.5,26.5C 402.391,25.71 401.058,25.21 399.5,25C 300.833,24.6667 202.167,24.3333 103.5,24C 102.167,23.3333 102.167,22.6667 103.5,22C 102.5,21 101.5,20 100.5,19C 200.334,18.8331 300.001,18.3331 399.5,17.5 Z"/></g>
<g><path style="opacity:1" fill="#dfa176" d="M 460.5,207.5 C 458.488,205.867 456.821,203.867 455.5,201.5C 453.962,204.148 452.628,206.815 451.5,209.5C 452.617,195.974 455.617,195.307 460.5,207.5 Z"/></g>
<g><path style="opacity:1" fill="#e8ae7e" d="M 54.5,255.5 C 56.6862,237.919 55.5195,220.586 51,203.5C 49.8545,202.316 48.6879,202.316 47.5,203.5C 47.7086,202.078 48.2086,200.745 49,199.5C 49.8928,198.289 50.7261,198.289 51.5,199.5C 53.5701,205.348 55.0701,211.348 56,217.5C 56.6667,227.5 56.6667,237.5 56,247.5C 55.8171,250.365 55.3171,253.031 54.5,255.5 Z"/></g>
<g><path style="opacity:1" fill="#f3c684" d="M 54.5,255.5 C 54.0078,259.628 53.0078,263.628 51.5,267.5C 41.5636,253.409 38.0636,237.742 41,220.5C 41.9116,214.252 44.0783,208.585 47.5,203.5C 48.6879,202.316 49.8545,202.316 51,203.5C 55.5195,220.586 56.6862,237.919 54.5,255.5 Z"/></g>
<g><path style="opacity:1" fill="#2d4034" d="M 412.5,217.5 C 412.833,217.5 413.167,217.5 413.5,217.5C 413.276,221.179 412.942,224.846 412.5,228.5C 412.167,228.5 411.833,228.5 411.5,228.5C 411.244,224.731 411.577,221.064 412.5,217.5 Z"/></g>
<g><path style="opacity:1" fill="#274e40" d="M 92.5,216.5 C 94.217,219.845 94.8836,223.511 94.5,227.5C 94.5,227.833 94.5,228.167 94.5,228.5C 93.8333,226.833 93.1667,225.167 92.5,223.5C 92.5,221.167 92.5,218.833 92.5,216.5 Z"/></g>
<g><path style="opacity:1" fill="#f1c483" d="M 460.5,207.5 C 466.568,222.603 467.068,237.937 462,253.5C 460.004,258.163 457.504,262.497 454.5,266.5C 448.988,252.018 447.155,237.018 449,221.5C 449.521,217.394 450.354,213.394 451.5,209.5C 452.628,206.815 453.962,204.148 455.5,201.5C 456.821,203.867 458.488,205.867 460.5,207.5 Z"/></g>
<g><path style="opacity:1" fill="#46151a" d="M 92.5,223.5 C 93.1667,225.167 93.8333,226.833 94.5,228.5C 95.1587,231.455 95.4921,234.455 95.5,237.5C 94.0337,236.653 93.2004,235.32 93,233.5C 92.5017,230.183 92.335,226.85 92.5,223.5 Z"/></g>
<g><path style="opacity:1" fill="#f2c584" d="M 413.5,258.5 C 427.981,262.731 436.481,272.398 439,287.5C 439.499,291.152 439.665,294.818 439.5,298.5C 438.94,300.801 438.44,303.134 438,305.5C 437.612,306.428 436.945,307.095 436,307.5C 425.51,300.994 418.844,291.66 416,279.5C 414.117,272.622 413.284,265.622 413.5,258.5 Z"/></g>
<g><path style="opacity:1" fill="#f3c684" d="M 88.5,259.5 C 89.5,259.5 90.5,259.5 91.5,259.5C 91.6079,264.87 91.2745,270.203 90.5,275.5C 87.98,289.232 80.98,299.898 69.5,307.5C 68.0295,306.619 67.1962,305.286 67,303.5C 66.2944,297.13 66.4611,290.797 67.5,284.5C 69.8544,272.154 76.8544,263.821 88.5,259.5 Z"/></g>
<g><path style="opacity:1" fill="#8c4531" d="M 88.5,259.5 C 88.9169,258.876 89.5836,258.543 90.5,258.5C 91.7133,258.747 92.38,259.414 92.5,260.5C 92.6658,265.179 92.4992,269.845 92,274.5C 91.6174,275.056 91.1174,275.389 90.5,275.5C 91.2745,270.203 91.6079,264.87 91.5,259.5C 90.5,259.5 89.5,259.5 88.5,259.5 Z"/></g>
<g><path style="opacity:1" fill="#f4c885" d="M 488.5,269.5 C 490.833,269.5 493.167,269.5 495.5,269.5C 493.249,283.837 486.916,296.003 476.5,306C 472.326,308.588 467.993,310.921 463.5,313C 458.845,313.499 454.179,313.666 449.5,313.5C 456.93,293.746 469.93,279.079 488.5,269.5 Z"/></g>
<g><path style="opacity:1" fill="#f5c985" d="M 51.5,303.5 C 52.1667,306.5 52.8333,309.5 53.5,312.5C 47.0533,313.58 41.3866,312.08 36.5,308C 34.8659,307.506 33.1992,307.34 31.5,307.5C 20.0891,297.719 12.7558,285.386 9.5,270.5C 13.6373,269.366 17.6373,269.866 21.5,272C 34.7679,279.434 44.7679,289.934 51.5,303.5 Z"/></g>
<g><path style="opacity:1" fill="#e9b082" d="M 51.5,303.5 C 53.8966,306.309 55.2299,309.642 55.5,313.5C 46.4627,314.976 38.4627,312.976 31.5,307.5C 33.1992,307.34 34.8659,307.506 36.5,308C 41.3866,312.08 47.0533,313.58 53.5,312.5C 52.8333,309.5 52.1667,306.5 51.5,303.5 Z"/></g>
<g><path style="opacity:1" fill="#f4c884" d="M 444.5,365.5 C 438.531,366.044 432.864,365.044 427.5,362.5C 429.278,360.736 430.611,358.736 431.5,356.5C 440.471,344.728 452.138,336.562 466.5,332C 470.821,331.501 475.154,331.334 479.5,331.5C 474.255,347.25 463.921,358.417 448.5,365C 447.207,365.49 445.873,365.657 444.5,365.5 Z"/></g>
<g><path style="opacity:1" fill="#f4c884" d="M 77.5,364.5 C 69.7152,366.054 62.0486,365.721 54.5,363.5C 49.1357,361.399 44.3023,358.399 40,354.5C 37,350.833 34,347.167 31,343.5C 28.3441,339.856 26.5107,335.856 25.5,331.5C 36.8259,330.776 47.1592,333.61 56.5,340C 65.5124,346.346 73.1791,354.012 79.5,363C 79.1639,364.03 78.4972,364.53 77.5,364.5 Z"/></g>
<g><path style="opacity:1" fill="#f4c985" d="M 383.5,345.5 C 388.095,349.012 390.929,353.678 392,359.5C 392.886,367.614 392.386,375.614 390.5,383.5C 388.346,388.665 385.346,393.332 381.5,397.5C 377.488,392.144 375.154,386.144 374.5,379.5C 374.028,370.668 374.861,362.002 377,353.5C 377.333,354.167 377.667,354.833 378,355.5C 379.043,352.243 379.543,348.91 379.5,345.5C 380.833,345.5 382.167,345.5 383.5,345.5 Z"/></g>
<g><path style="opacity:1" fill="#f1c383" d="M 62.5,299.5 C 89.0549,380.721 142.722,435.054 223.5,462.5C 220.031,461.887 218.031,463.221 217.5,466.5C 220.219,466.603 222.885,466.269 225.5,465.5C 228.866,468.566 232.866,470.399 237.5,471C 238.669,473.007 239.335,475.173 239.5,477.5C 237.654,475.97 236.654,473.97 236.5,471.5C 196.133,462.317 160.466,444.151 129.5,417C 87.0095,378.696 60.3429,331.363 49.5,275C 50.6738,270.999 52.8405,270.499 56,273.5C 57.4612,282.376 59.6279,291.043 62.5,299.5 Z"/></g>
<g><path style="opacity:1" fill="#dd9d79" d="M 54.5,363.5 C 62.0486,365.721 69.7152,366.054 77.5,364.5C 74.3048,366.03 70.8048,366.696 67,366.5C 62.3591,366.933 58.1924,365.933 54.5,363.5 Z"/></g>
<g><path style="opacity:1" fill="#dfa27b" d="M 431.5,356.5 C 430.611,358.736 429.278,360.736 427.5,362.5C 432.864,365.044 438.531,366.044 444.5,365.5C 438.928,366.87 433.261,366.703 427.5,365C 426.833,364.333 426.167,363.667 425.5,363C 426.998,360.336 428.998,358.17 431.5,356.5 Z"/></g>
<g><path style="opacity:1" fill="#0f634a" d="M 91.5,17.5 C 91.8333,17.5 92.1667,17.5 92.5,17.5C 194.833,17.5 297.167,17.5 399.5,17.5C 300.001,18.3331 200.334,18.8331 100.5,19C 101.5,20 102.5,21 103.5,22C 102.167,22.6667 102.167,23.3333 103.5,24C 202.167,24.3333 300.833,24.6667 399.5,25C 401.058,25.21 402.391,25.71 403.5,26.5C 404.451,27.9187 404.784,29.5853 404.5,31.5C 405.833,31.5 407.167,31.5 408.5,31.5C 408.167,91.837 408.5,152.17 409.5,212.5C 410.265,213.612 411.265,214.279 412.5,214.5C 412.5,215.5 412.5,216.5 412.5,217.5C 411.577,221.064 411.244,224.731 411.5,228.5C 409.59,239.236 407.257,249.903 404.5,260.5C 401.326,268.83 397.992,277.163 394.5,285.5C 392.993,289.694 390.993,293.694 388.5,297.5C 386.299,300.569 384.632,303.902 383.5,307.5C 381.674,309.147 380.34,311.147 379.5,313.5C 377.05,315.629 375.383,318.296 374.5,321.5C 369.198,328.476 363.864,335.476 358.5,342.5C 356.413,343.585 355.08,345.251 354.5,347.5C 337.563,365.936 318.896,382.436 298.5,397C 296.372,397.655 294.372,398.489 292.5,399.5C 290.449,400.487 288.782,401.82 287.5,403.5C 281.42,406.54 275.42,409.54 269.5,412.5C 267.033,412.755 265.033,413.755 263.5,415.5C 260.593,415.575 257.927,416.409 255.5,418C 253.167,418.667 250.833,418.667 248.5,418C 208.736,401.563 175.236,376.729 148,343.5C 126.883,318.079 111.049,289.745 100.5,258.5C 99.1503,251.453 97.4836,244.453 95.5,237.5C 95.4921,234.455 95.1587,231.455 94.5,228.5C 94.5,228.167 94.5,227.833 94.5,227.5C 95.3227,224.023 95.8227,220.356 96,216.5C 96.6667,154.833 96.6667,93.1667 96,31.5C 95.6667,92.5 95.3333,153.5 95,214.5C 94.3333,152.167 94.3333,89.8333 95,27.5C 95.3333,28.1667 95.6667,28.8333 96,29.5C 96.0636,25.5279 97.2303,22.0279 99.5,19C 97.1902,18.5034 94.8568,18.3367 92.5,18.5C 92.5,83.8333 92.5,149.167 92.5,214.5C 91.5009,149.002 91.1675,83.3355 91.5,17.5 Z"/></g>
<g><path style="opacity:1" fill="#eb2a0e" d="M 124.5,233.5 C 125.167,235.5 125.833,237.5 126.5,239.5C 128.7,246.647 130.866,253.981 133,261.5C 136.298,266.387 138.631,271.72 140,277.5C 147.333,289.5 154.667,301.5 162,313.5C 171.254,324.924 181.421,335.59 192.5,345.5C 199.3,351.98 206.633,357.647 214.5,362.5C 216.788,365.456 219.788,367.123 223.5,367.5C 223.937,369.074 224.937,370.241 226.5,371C 234.841,375.492 243.508,379.326 252.5,382.5C 256.967,380.645 261.3,378.645 265.5,376.5C 271.973,374.338 277.973,371.338 283.5,367.5C 288.13,364.514 292.797,361.514 297.5,358.5C 300.586,357.284 303.586,355.784 306.5,354C 308.964,350.699 311.631,347.532 314.5,344.5C 333,326.249 349.166,305.916 363,283.5C 365.157,277.267 367.823,271.267 371,265.5C 373.308,256.586 376.141,247.92 379.5,239.5C 377.649,245.205 378.316,250.539 381.5,255.5C 382.001,253.345 383.001,251.678 384.5,250.5C 384.579,253.271 384.079,255.937 383,258.5C 378.095,270.421 372.928,282.088 367.5,293.5C 364.344,296.022 362.344,299.355 361.5,303.5C 355.81,309.541 350.81,316.207 346.5,323.5C 342.124,326.874 338.458,330.874 335.5,335.5C 335.5,335.833 335.5,336.167 335.5,336.5C 329.537,340.795 324.204,345.795 319.5,351.5C 301.837,367.527 281.837,380.36 259.5,390C 257.2,390.658 254.867,391.158 252.5,391.5C 227.273,383.232 205.273,369.898 186.5,351.5C 183.437,347.434 179.771,344.101 175.5,341.5C 172.075,337.285 168.408,333.285 164.5,329.5C 144.185,305.709 129.185,278.876 119.5,249C 118.133,244.599 117.467,240.099 117.5,235.5C 118.835,240.535 120.001,240.535 121,235.5C 120.913,239.885 121.08,244.219 121.5,248.5C 124.133,243.903 125.133,238.903 124.5,233.5 Z"/></g>
<g><path style="opacity:1" fill="#5b010f" d="M 103.5,29.5 C 202.096,30.4975 300.763,30.8308 399.5,30.5C 399.5,33.5 399.5,36.5 399.5,39.5C 396.104,39.3671 395.771,38.3671 398.5,36.5C 396.211,34.4077 393.711,34.0744 391,35.5C 389.312,34.6753 389.145,33.6753 390.5,32.5C 388.955,31.5481 387.288,31.2148 385.5,31.5C 385.5,32.8333 385.5,34.1667 385.5,35.5C 299.5,35.5 213.5,35.5 127.5,35.5C 127.5,34.5 127.5,33.5 127.5,32.5C 212.834,32.6667 298.167,32.5 383.5,32C 295.833,31.3333 208.167,31.3333 120.5,32C 121.423,34.0408 121.756,36.2075 121.5,38.5C 118.989,38.838 116.655,38.838 114.5,38.5C 112.642,36.1547 111.642,33.8213 111.5,31.5C 111.167,60.8333 110.833,90.1667 110.5,119.5C 110.5,149.174 111.167,178.508 112.5,207.5C 112.334,212.844 112.501,218.177 113,223.5C 113.488,227.833 114.655,231.833 116.5,235.5C 116.833,235.5 117.167,235.5 117.5,235.5C 117.467,240.099 118.133,244.599 119.5,249C 129.185,278.876 144.185,305.709 164.5,329.5C 165.454,332.003 166.787,334.336 168.5,336.5C 165.891,337.76 166.057,338.76 169,339.5C 169.873,339.265 170.707,338.931 171.5,338.5C 172.642,339.826 173.976,340.826 175.5,341.5C 178.563,345.566 182.229,348.899 186.5,351.5C 205.273,369.898 227.273,383.232 252.5,391.5C 254.867,391.158 257.2,390.658 259.5,390C 281.837,380.36 301.837,367.527 319.5,351.5C 325.489,347.177 330.822,342.177 335.5,336.5C 335.5,336.167 335.5,335.833 335.5,335.5C 337.044,335.297 338.378,334.63 339.5,333.5C 340.167,334.833 340.833,336.167 341.5,337.5C 342.086,337.291 342.586,336.957 343,336.5C 342.388,334.248 342.055,331.915 342,329.5C 344.127,327.886 345.627,325.886 346.5,323.5C 350.81,316.207 355.81,309.541 361.5,303.5C 363.863,300.451 365.863,297.118 367.5,293.5C 372.928,282.088 378.095,270.421 383,258.5C 384.079,255.937 384.579,253.271 384.5,250.5C 384.5,249.833 384.833,249.5 385.5,249.5C 386.958,255.21 388.625,260.876 390.5,266.5C 389.681,268.772 389.015,271.106 388.5,273.5C 386.755,275.033 385.755,277.033 385.5,279.5C 360.527,332.139 322.527,372.472 271.5,400.5C 268.687,400.025 266.687,401.025 265.5,403.5C 261.229,404.811 256.896,406.144 252.5,407.5C 250.443,407.564 248.777,406.898 247.5,405.5C 244.66,403.085 241.327,401.752 237.5,401.5C 223.387,395.279 210.387,387.279 198.5,377.5C 197.415,375.413 195.749,374.08 193.5,373.5C 159.651,345.788 133.818,311.788 116,271.5C 111.604,259.137 108.104,246.471 105.5,233.5C 105.59,230.848 104.924,228.515 103.5,226.5C 103.5,222.167 103.5,217.833 103.5,213.5C 103.5,152.167 103.5,90.8333 103.5,29.5 Z"/></g>
<g><path style="opacity:1" fill="#550514" d="M 394.5,255.5 C 393.965,259.309 392.965,262.976 391.5,266.5C 391.167,266.5 390.833,266.5 390.5,266.5C 388.625,260.876 386.958,255.21 385.5,249.5C 386.794,248.71 387.961,247.71 389,246.5C 387.829,251.459 388.663,256.125 391.5,260.5C 392.001,258.345 393.001,256.678 394.5,255.5 Z"/></g>
<g><path style="opacity:1" fill="#a9140f" d="M 123.5,227.5 C 123.833,227.5 124.167,227.5 124.5,227.5C 126.002,231.342 126.668,235.342 126.5,239.5C 125.833,237.5 125.167,235.5 124.5,233.5C 123.85,231.565 123.517,229.565 123.5,227.5 Z"/></g>
<g><path style="opacity:1" fill="#2b3229" d="M 103.5,226.5 C 104.924,228.515 105.59,230.848 105.5,233.5C 104.076,231.485 103.41,229.152 103.5,226.5 Z"/></g>
<g><path style="opacity:1" fill="#c12312" d="M 382.5,223.5 C 382.622,229.177 381.622,234.51 379.5,239.5C 379.378,233.823 380.378,228.49 382.5,223.5 Z"/></g>
<g><path style="opacity:1" fill="#5c0110" d="M 383.5,53.5 C 383.832,110.336 383.499,167.002 382.5,223.5C 380.378,228.49 379.378,233.823 379.5,239.5C 376.141,247.92 373.308,256.586 371,265.5C 367.823,271.267 365.157,277.267 363,283.5C 349.166,305.916 333,326.249 314.5,344.5C 308.537,348.796 302.87,353.462 297.5,358.5C 292.797,361.514 288.13,364.514 283.5,367.5C 284.082,365.002 284.082,362.669 283.5,360.5C 284.207,358.769 285.207,357.103 286.5,355.5C 284.764,351.56 286.097,349.893 290.5,350.5C 290.5,349.167 290.5,347.833 290.5,346.5C 290.318,344.409 290.652,342.409 291.5,340.5C 290.15,339.05 288.484,338.383 286.5,338.5C 285.732,339.263 285.232,340.263 285,341.5C 284.692,340.692 284.192,340.025 283.5,339.5C 281.574,340.061 279.574,340.227 277.5,340C 276.736,342.069 276.236,344.236 276,346.5C 274.667,347.167 273.333,347.833 272,348.5C 273.328,346.152 274.495,343.485 275.5,340.5C 274.833,339.167 274.167,337.833 273.5,336.5C 274.325,335.614 275.325,335.281 276.5,335.5C 276.297,333.61 276.963,332.11 278.5,331C 276.167,330.667 273.833,330.333 271.5,330C 275.503,328.9 279.503,328.067 283.5,327.5C 283.784,325.585 283.451,323.919 282.5,322.5C 281.233,319.728 281.233,317.061 282.5,314.5C 284.167,314.5 285.833,314.5 287.5,314.5C 287.5,311.833 287.5,309.167 287.5,306.5C 280.833,306.5 274.167,306.5 267.5,306.5C 266.609,307.11 265.609,307.443 264.5,307.5C 263.653,306.034 262.32,305.2 260.5,305C 258.167,304.667 255.833,304.333 253.5,304C 264.833,303.667 276.167,303.333 287.5,303C 266.167,302.333 244.833,302.333 223.5,303C 224.167,303.333 224.833,303.667 225.5,304C 222.008,303.93 219.008,304.763 216.5,306.5C 216.5,308.167 216.5,309.833 216.5,311.5C 217.5,311.5 218.5,311.5 219.5,311.5C 219.5,315.167 219.5,318.833 219.5,322.5C 218.5,322.5 217.5,322.5 216.5,322.5C 216.5,324.167 216.5,325.833 216.5,327.5C 219.908,328.02 223.241,329.02 226.5,330.5C 225.824,335.664 223.824,336.497 220.5,333C 221.624,332.751 222.624,332.251 223.5,331.5C 221.955,330.548 220.288,330.215 218.5,330.5C 218.649,331.552 218.483,332.552 218,333.5C 216.22,334.594 214.386,335.594 212.5,336.5C 213.08,339.311 213.746,341.977 214.5,344.5C 214.082,345.222 213.416,345.722 212.5,346C 214.061,346.941 215.395,348.108 216.5,349.5C 215.624,350.251 214.624,350.751 213.5,351C 216.407,354.861 215.407,357.194 210.5,358C 212.041,359.371 213.375,360.871 214.5,362.5C 206.633,357.647 199.3,351.98 192.5,345.5C 181.421,335.59 171.254,324.924 162,313.5C 154.667,301.5 147.333,289.5 140,277.5C 138.631,271.72 136.298,266.387 133,261.5C 130.866,253.981 128.7,246.647 126.5,239.5C 126.668,235.342 126.002,231.342 124.5,227.5C 124.189,220.91 124.522,214.41 125.5,208C 123.507,156.717 122.84,105.217 123.5,53.5C 210.167,53.5 296.833,53.5 383.5,53.5 Z"/></g>
<g><path style="opacity:1" fill="#f7dbdd" d="M 257.5,249.5 C 256.526,259.418 256.193,269.418 256.5,279.5C 255.834,274.678 255.501,269.678 255.5,264.5C 255.506,259.119 256.172,254.119 257.5,249.5 Z"/></g>
<g><path style="opacity:1" fill="#f7f2f3" d="M 258.5,245.5 C 258.768,247.099 258.434,248.432 257.5,249.5C 256.172,254.119 255.506,259.119 255.5,264.5C 255.501,269.678 255.834,274.678 256.5,279.5C 258.176,280.183 258.843,281.517 258.5,283.5C 254.833,283.5 251.167,283.5 247.5,283.5C 247.5,282.5 247.5,281.5 247.5,280.5C 248.474,270.582 248.807,260.582 248.5,250.5C 247.699,248.958 247.366,247.292 247.5,245.5C 251.167,245.5 254.833,245.5 258.5,245.5 Z"/></g>
<g><path style="opacity:1" fill="#c5a2a9" d="M 236.5,249.5 C 235.526,259.418 235.193,269.418 235.5,279.5C 234.834,274.678 234.501,269.678 234.5,264.5C 234.506,259.119 235.172,254.119 236.5,249.5 Z"/></g>
<g><path style="opacity:1" fill="#ecd0d4" d="M 226.5,249.5 C 227.828,254.119 228.494,259.119 228.5,264.5C 228.499,269.678 228.166,274.678 227.5,279.5C 227.807,269.418 227.474,259.418 226.5,249.5 Z"/></g>
<g><path style="opacity:1" fill="#fcfbfb" d="M 278.5,250.5 C 277.834,255.155 277.501,259.988 277.5,265C 277.689,271.268 278.356,277.435 279.5,283.5C 275.833,283.5 272.167,283.5 268.5,283.5C 268.5,282.5 268.5,281.5 268.5,280.5C 270.6,270.755 271.1,260.755 270,250.5C 269.617,249.944 269.117,249.611 268.5,249.5C 268.5,248.167 268.5,246.833 268.5,245.5C 272.167,245.5 275.833,245.5 279.5,245.5C 279.634,247.292 279.301,248.958 278.5,250.5 Z"/></g>
<g><path style="opacity:1" fill="#fbfaf9" d="M 225.5,245.5 C 229.5,245.5 233.5,245.5 237.5,245.5C 237.768,247.099 237.434,248.432 236.5,249.5C 235.172,254.119 234.506,259.119 234.5,264.5C 234.501,269.678 234.834,274.678 235.5,279.5C 235.833,279.5 236.167,279.5 236.5,279.5C 236.5,280.833 236.5,282.167 236.5,283.5C 233.167,283.5 229.833,283.5 226.5,283.5C 226.5,282.167 226.5,280.833 226.5,279.5C 226.833,279.5 227.167,279.5 227.5,279.5C 228.166,274.678 228.499,269.678 228.5,264.5C 228.494,259.119 227.828,254.119 226.5,249.5C 225.566,248.432 225.232,247.099 225.5,245.5 Z"/></g>
<g><path style="opacity:1" fill="#712a38" d="M 216.5,243.5 C 240.833,243.5 265.167,243.5 289.5,243.5C 286.713,244.477 283.713,244.81 280.5,244.5C 280.975,247.082 280.308,249.082 278.5,250.5C 279.301,248.958 279.634,247.292 279.5,245.5C 275.833,245.5 272.167,245.5 268.5,245.5C 268.5,246.833 268.5,248.167 268.5,249.5C 267.549,248.081 267.216,246.415 267.5,244.5C 264.287,244.19 261.287,244.523 258.5,245.5C 254.833,245.5 251.167,245.5 247.5,245.5C 247.366,247.292 247.699,248.958 248.5,250.5C 246.692,249.082 246.025,247.082 246.5,244.5C 243.287,244.19 240.287,244.523 237.5,245.5C 233.5,245.5 229.5,245.5 225.5,245.5C 222.5,244.833 219.5,244.167 216.5,243.5 Z"/></g>
<g><path style="opacity:1" fill="#e0bfc4" d="M 216.5,239.5 C 216.5,240.5 216.5,241.5 216.5,242.5C 240.833,242.5 265.167,242.5 289.5,242.5C 289.5,242.833 289.5,243.167 289.5,243.5C 265.167,243.5 240.833,243.5 216.5,243.5C 215.167,242.167 215.167,240.833 216.5,239.5 Z"/></g>
<g><path style="opacity:1" fill="#f9f5f5" d="M 289.5,242.5 C 265.167,242.5 240.833,242.5 216.5,242.5C 216.5,241.5 216.5,240.5 216.5,239.5C 228.054,233.139 239.888,227.139 252,221.5C 264.38,226.94 276.547,232.774 288.5,239C 289.337,240.011 289.67,241.178 289.5,242.5 Z"/></g>
<g><path style="opacity:1" fill="#c89da6" d="M 239.5,235.5 C 248.5,236.833 257.5,236.833 266.5,235.5C 267.043,235.56 267.376,235.893 267.5,236.5C 257.183,237.666 246.849,237.832 236.5,237C 237.244,235.961 238.244,235.461 239.5,235.5 Z"/></g>
<g><path style="opacity:1" fill="#5b0b17" d="M 266.5,235.5 C 257.5,236.833 248.5,236.833 239.5,235.5C 243.628,233.272 247.961,231.272 252.5,229.5C 257.183,231.509 261.85,233.509 266.5,235.5 Z"/></g>
<g><path style="opacity:1" fill="#f72807" d="M 389.5,44.5 C 302.506,46.3314 215.172,47.1647 127.5,47C 126.663,48.0113 126.33,49.1779 126.5,50.5C 125.833,50.5 125.167,50.5 124.5,50.5C 122.94,48.8706 123.273,47.704 125.5,47C 122.518,46.502 119.518,46.3354 116.5,46.5C 116.167,100.171 116.5,153.837 117.5,207.5C 118.5,154.171 118.833,100.837 118.5,47.5C 119.5,47.5 120.5,47.5 121.5,47.5C 121.5,48.5 121.5,49.5 121.5,50.5C 120.338,106.429 120.171,162.429 121,218.5C 121.958,223.123 122.625,227.79 123,232.5C 123.383,233.056 123.883,233.389 124.5,233.5C 125.133,238.903 124.133,243.903 121.5,248.5C 121.08,244.219 120.913,239.885 121,235.5C 120.001,240.535 118.835,240.535 117.5,235.5C 117.167,235.5 116.833,235.5 116.5,235.5C 115.838,231.534 115.505,227.534 115.5,223.5C 114.531,163.846 114.198,104.179 114.5,44.5C 206.167,44.5 297.833,44.5 389.5,44.5 Z"/></g>
<g><path style="opacity:1" fill="#920f0c" d="M 113.5,43.5 C 113.333,101.501 113.5,159.501 114,217.5C 114.191,219.708 114.691,221.708 115.5,223.5C 115.505,227.534 115.838,231.534 116.5,235.5C 114.655,231.833 113.488,227.833 113,223.5C 112.501,218.177 112.334,212.844 112.5,207.5C 112.168,152.664 112.501,97.9975 113.5,43.5 Z"/></g>
<g><path style="opacity:1" fill="#ef2a0b" d="M 389.5,44.5 C 389.833,44.5 390.167,44.5 390.5,44.5C 390.667,101.834 390.5,159.168 390,216.5C 389.024,225.301 387.857,233.968 386.5,242.5C 386.007,244.806 385.674,247.139 385.5,249.5C 384.833,249.5 384.5,249.833 384.5,250.5C 383.001,251.678 382.001,253.345 381.5,255.5C 378.316,250.539 377.649,245.205 379.5,239.5C 381.622,234.51 382.622,229.177 382.5,223.5C 383.499,167.002 383.832,110.336 383.5,53.5C 383.5,53.1667 383.5,52.8333 383.5,52.5C 383.5,51.8333 383.5,51.1667 383.5,50.5C 341.172,49.1667 298.505,48.5001 255.5,48.5C 212.495,48.5001 169.828,49.1667 127.5,50.5C 127.167,50.5 126.833,50.5 126.5,50.5C 126.33,49.1779 126.663,48.0113 127.5,47C 215.172,47.1647 302.506,46.3314 389.5,44.5 Z"/></g>
<g><path style="opacity:1" fill="#670004" d="M 383.5,52.5 C 383.5,52.8333 383.5,53.1667 383.5,53.5C 296.833,53.5 210.167,53.5 123.5,53.5C 122.84,105.217 123.507,156.717 125.5,208C 124.522,214.41 124.189,220.91 124.5,227.5C 124.167,227.5 123.833,227.5 123.5,227.5C 122.549,169.176 122.216,110.842 122.5,52.5C 209.5,52.5 296.5,52.5 383.5,52.5 Z"/></g>
<g><path style="opacity:1" fill="#cd2716" d="M 121.5,50.5 C 122.5,50.5 123.5,50.5 124.5,50.5C 125.167,50.5 125.833,50.5 126.5,50.5C 126.833,50.5 127.167,50.5 127.5,50.5C 212.833,50.5 298.167,50.5 383.5,50.5C 383.5,51.1667 383.5,51.8333 383.5,52.5C 296.5,52.5 209.5,52.5 122.5,52.5C 122.216,110.842 122.549,169.176 123.5,227.5C 123.517,229.565 123.85,231.565 124.5,233.5C 123.883,233.389 123.383,233.056 123,232.5C 122.625,227.79 121.958,223.123 121,218.5C 120.171,162.429 120.338,106.429 121.5,50.5 Z"/></g>
<g><path style="opacity:1" fill="#5f000e" d="M 399.5,39.5 C 399.621,101.848 399.454,164.181 399,226.5C 399.333,224.167 399.667,221.833 400,219.5C 400.498,222.482 400.665,225.482 400.5,228.5C 400.235,232.853 399.735,237.187 399,241.5C 398.002,246.368 396.502,251.035 394.5,255.5C 393.001,256.678 392.001,258.345 391.5,260.5C 388.663,256.125 387.829,251.459 389,246.5C 387.961,247.71 386.794,248.71 385.5,249.5C 385.674,247.139 386.007,244.806 386.5,242.5C 390.003,233.946 391.67,224.946 391.5,215.5C 392.499,158.336 392.832,101.002 392.5,43.5C 299.5,43.5 206.5,43.5 113.5,43.5C 112.501,97.9975 112.168,152.664 112.5,207.5C 111.167,178.508 110.5,149.174 110.5,119.5C 110.833,90.1667 111.167,60.8333 111.5,31.5C 111.642,33.8213 112.642,36.1547 114.5,38.5C 116.655,38.838 118.989,38.838 121.5,38.5C 121.756,36.2075 121.423,34.0408 120.5,32C 208.167,31.3333 295.833,31.3333 383.5,32C 298.167,32.5 212.834,32.6667 127.5,32.5C 127.5,33.5 127.5,34.5 127.5,35.5C 213.5,35.5 299.5,35.5 385.5,35.5C 385.5,34.1667 385.5,32.8333 385.5,31.5C 387.288,31.2148 388.955,31.5481 390.5,32.5C 389.145,33.6753 389.312,34.6753 391,35.5C 393.711,34.0744 396.211,34.4077 398.5,36.5C 395.771,38.3671 396.104,39.3671 399.5,39.5 Z"/></g>
<g><path style="opacity:1" fill="#e52c11" d="M 390.5,44.5 C 391.499,101.331 391.832,158.331 391.5,215.5C 391.67,224.946 390.003,233.946 386.5,242.5C 387.857,233.968 389.024,225.301 390,216.5C 390.5,159.168 390.667,101.834 390.5,44.5 Z"/></g>
<g><path style="opacity:1" fill="#d72c1a" d="M 113.5,43.5 C 206.5,43.5 299.5,43.5 392.5,43.5C 392.832,101.002 392.499,158.336 391.5,215.5C 391.832,158.331 391.499,101.331 390.5,44.5C 390.167,44.5 389.833,44.5 389.5,44.5C 297.833,44.5 206.167,44.5 114.5,44.5C 114.198,104.179 114.531,163.846 115.5,223.5C 114.691,221.708 114.191,219.708 114,217.5C 113.5,159.501 113.333,101.501 113.5,43.5 Z"/></g>
<g><path style="opacity:1" fill="#680010" d="M 402.5,28.5 C 402.5,90.8333 402.5,153.167 402.5,215.5C 402.5,215.833 402.5,216.167 402.5,216.5C 401.167,185.507 400.5,154.174 400.5,122.5C 400.5,90.8261 401.167,59.4928 402.5,28.5 Z"/></g>
<g><path style="opacity:1" fill="#342a28" d="M 101.5,26.5 C 103.167,26.5 104.833,26.5 106.5,26.5C 106.5,26.8333 106.5,27.1667 106.5,27.5C 105.167,27.5 103.833,27.5 102.5,27.5C 102.5,88.5 102.5,149.5 102.5,210.5C 102.167,210.5 101.833,210.5 101.5,210.5C 101.5,149.167 101.5,87.8333 101.5,26.5 Z"/></g>
<g><path style="opacity:1" fill="#076a4f" d="M 101.5,26.5 C 101.5,87.8333 101.5,149.167 101.5,210.5C 101.665,214.182 101.499,217.848 101,221.5C 100.027,219.608 99.3599,217.608 99,215.5C 98.3333,152.167 98.3333,88.8333 99,25.5C 100.494,21.6959 101.328,22.0293 101.5,26.5 Z"/></g>
<g><path style="opacity:1" fill="#4f060f" d="M 106.5,27.5 C 205.335,27.1672 304.001,27.5006 402.5,28.5C 401.167,59.4928 400.5,90.8261 400.5,122.5C 400.5,154.174 401.167,185.507 402.5,216.5C 402.656,220.764 401.989,224.764 400.5,228.5C 400.665,225.482 400.498,222.482 400,219.5C 399.667,221.833 399.333,224.167 399,226.5C 399.454,164.181 399.621,101.848 399.5,39.5C 399.5,36.5 399.5,33.5 399.5,30.5C 350.505,29.1667 301.171,28.5001 251.5,28.5C 201.999,28.5 152.666,28.8333 103.5,29.5C 103.5,90.8333 103.5,152.167 103.5,213.5C 102.596,212.791 102.263,211.791 102.5,210.5C 102.5,149.5 102.5,88.5 102.5,27.5C 103.833,27.5 105.167,27.5 106.5,27.5 Z"/></g>
<g><path style="opacity:1" fill="#efbb84" d="M 195.5,176.5 C 197.459,182.75 198.126,189.416 197.5,196.5C 194.416,201.397 190.082,204.897 184.5,207C 177.717,209.766 171.051,209.932 164.5,207.5C 168.846,207.666 173.179,207.499 177.5,207C 180.47,205.847 183.137,204.18 185.5,202C 190.544,202.455 193.877,200.288 195.5,195.5C 193.818,192.952 192.818,190.118 192.5,187C 192.833,185.5 193.167,184 193.5,182.5C 194.167,184.833 194.833,187.167 195.5,189.5C 196.487,186.232 196.82,182.898 196.5,179.5C 191.382,180.031 186.382,181.031 181.5,182.5C 185.844,179.935 190.51,177.935 195.5,176.5 Z"/></g>
<g><path style="opacity:1" fill="#f5c886" d="M 372.5,201.5 C 372.838,204.325 371.838,206.492 369.5,208C 345.5,208.667 321.5,208.667 297.5,208C 296.619,207.292 295.953,206.458 295.5,205.5C 295.5,204.167 295.5,202.833 295.5,201.5C 321.167,201.5 346.833,201.5 372.5,201.5 Z"/></g>
<g><path style="opacity:1" fill="#b67458" d="M 372.5,201.5 C 346.833,201.5 321.167,201.5 295.5,201.5C 295.5,202.833 295.5,204.167 295.5,205.5C 294.549,204.081 294.216,202.415 294.5,200.5C 320.672,200.169 346.672,200.502 372.5,201.5 Z"/></g>
<g><path style="opacity:1" fill="#e6ab81" d="M 205.5,193.5 C 205.5,195.167 205.5,196.833 205.5,198.5C 208.5,198.5 211.5,198.5 214.5,198.5C 214.371,196.784 214.038,195.117 213.5,193.5C 218.247,198.875 216.914,201.209 209.5,200.5C 202.086,201.209 200.753,198.875 205.5,193.5 Z"/></g>
<g><path style="opacity:1" fill="#f5ca85" d="M 150.5,177.5 C 157.482,180.161 164.482,182.828 171.5,185.5C 174.86,184.481 178.193,183.481 181.5,182.5C 186.382,181.031 191.382,180.031 196.5,179.5C 196.82,182.898 196.487,186.232 195.5,189.5C 194.833,187.167 194.167,184.833 193.5,182.5C 193.167,184 192.833,185.5 192.5,187C 192.818,190.118 193.818,192.952 195.5,195.5C 193.877,200.288 190.544,202.455 185.5,202C 183.137,204.18 180.47,205.847 177.5,207C 173.179,207.499 168.846,207.666 164.5,207.5C 156.954,206.601 151.287,202.934 147.5,196.5C 147.5,190.167 147.5,183.833 147.5,177.5C 148.5,177.5 149.5,177.5 150.5,177.5 Z"/></g>
<g><path style="opacity:1" fill="#d09270" d="M 147.5,175.5 C 148.71,175.932 149.71,176.599 150.5,177.5C 149.5,177.5 148.5,177.5 147.5,177.5C 147.5,183.833 147.5,190.167 147.5,196.5C 146.167,189.5 146.167,182.5 147.5,175.5 Z"/></g>
<g><path style="opacity:1" fill="#691e19" d="M 147.5,173.5 C 155.62,176.644 163.787,179.644 172,182.5C 180.02,179.214 188.187,176.214 196.5,173.5C 196.5,174.167 196.5,174.833 196.5,175.5C 195.833,175.5 195.5,175.833 195.5,176.5C 190.51,177.935 185.844,179.935 181.5,182.5C 178.193,183.481 174.86,184.481 171.5,185.5C 164.482,182.828 157.482,180.161 150.5,177.5C 149.71,176.599 148.71,175.932 147.5,175.5C 147.5,174.833 147.5,174.167 147.5,173.5 Z"/></g>
<g><path style="opacity:1" fill="#be7f5e" d="M 195.5,176.5 C 195.5,175.833 195.833,175.5 196.5,175.5C 197.821,178.598 198.488,182.098 198.5,186C 198.499,189.683 198.165,193.183 197.5,196.5C 198.126,189.416 197.459,182.75 195.5,176.5 Z"/></g>
<g><path style="opacity:1" fill="#f3c785" d="M 366.5,150.5 C 367.496,165.991 367.83,181.658 367.5,197.5C 345.167,197.5 322.833,197.5 300.5,197.5C 300.333,182.496 300.5,167.496 301,152.5C 301.925,151.953 302.758,151.287 303.5,150.5C 324.523,149.201 345.523,149.201 366.5,150.5 Z"/></g>
<g><path style="opacity:1" fill="#ac6450" d="M 308.5,156.5 C 308.5,168.5 308.5,180.5 308.5,192.5C 325.5,192.5 342.5,192.5 359.5,192.5C 342.341,193.497 325.008,193.83 307.5,193.5C 307.171,180.989 307.505,168.655 308.5,156.5 Z"/></g>
<g><path style="opacity:1" fill="#5c010e" d="M 308.5,156.5 C 325.5,156.5 342.5,156.5 359.5,156.5C 359.5,168.5 359.5,180.5 359.5,192.5C 342.5,192.5 325.5,192.5 308.5,192.5C 308.5,180.5 308.5,168.5 308.5,156.5 Z"/></g>
<g><path style="opacity:1" fill="#ecb782" d="M 175.5,148.5 C 168.637,149.731 162.304,152.231 156.5,156C 152.13,156.737 147.796,157.57 143.5,158.5C 151.744,155.052 160.077,151.552 168.5,148C 171.039,147.204 173.372,147.371 175.5,148.5 Z"/></g>
<g><path style="opacity:1" fill="#f4c985" d="M 175.5,148.5 C 187.781,153.205 199.947,158.205 212,163.5C 211.421,172.447 211.421,181.447 212,190.5C 213.039,191.244 213.539,192.244 213.5,193.5C 214.038,195.117 214.371,196.784 214.5,198.5C 211.5,198.5 208.5,198.5 205.5,198.5C 205.5,196.833 205.5,195.167 205.5,193.5C 205.461,192.244 205.961,191.244 207,190.5C 207.5,183.508 207.666,176.508 207.5,169.5C 203.463,170.065 199.797,171.399 196.5,173.5C 188.187,176.214 180.02,179.214 172,182.5C 163.787,179.644 155.62,176.644 147.5,173.5C 142.6,171.39 137.6,169.224 132.5,167C 131.167,165.667 131.167,164.333 132.5,163C 136.266,161.441 139.932,159.941 143.5,158.5C 147.796,157.57 152.13,156.737 156.5,156C 162.304,152.231 168.637,149.731 175.5,148.5 Z"/></g>
<g><path style="opacity:1" fill="#e0a67e" d="M 366.5,150.5 C 345.523,149.201 324.523,149.201 303.5,150.5C 302.758,151.287 301.925,151.953 301,152.5C 300.5,167.496 300.333,182.496 300.5,197.5C 299.339,182.339 299.172,167.006 300,151.5C 300.692,150.975 301.192,150.308 301.5,149.5C 322.492,148.334 343.492,148.167 364.5,149C 365.416,149.278 366.082,149.778 366.5,150.5 Z"/></g>
<g><path style="opacity:1" fill="#edbb81" d="M 214.5,69.5 C 224.315,72.1604 233.981,75.3271 243.5,79C 248.05,81.883 251.55,85.7163 254,90.5C 255.912,88.3428 257.579,86.0094 259,83.5C 261.5,81.6667 264,79.8333 266.5,78C 275.676,74.4932 285.009,71.8265 294.5,70C 299.333,73.5 303.5,77.6667 307,82.5C 307.667,83.5 307.667,84.5 307,85.5C 294.309,92.0751 282.142,99.4084 270.5,107.5C 278.462,113.154 286.795,118.32 295.5,123C 296.337,124.011 296.67,125.178 296.5,126.5C 288.16,126.666 279.827,126.5 271.5,126C 265.657,122.817 259.823,119.65 254,116.5C 248.271,119.281 242.771,122.447 237.5,126C 228.84,126.5 220.173,126.666 211.5,126.5C 211.33,125.178 211.663,124.011 212.5,123C 221.332,118.085 229.999,112.918 238.5,107.5C 226.202,100.365 214.035,93.0321 202,85.5C 201.48,83.7111 201.813,82.0444 203,80.5C 206.414,76.2775 210.247,72.6108 214.5,69.5 Z"/></g>
<g><path style="opacity:1" fill="#a96951" d="M 286.5,121.5 C 287.043,121.56 287.376,121.893 287.5,122.5C 282.014,123.815 276.68,123.815 271.5,122.5C 276.695,122.821 281.695,122.487 286.5,121.5 Z"/></g>
<g><path style="opacity:1" fill="#a86949" d="M 222.5,121.5 C 226.634,122.485 230.968,122.818 235.5,122.5C 230.684,123.65 225.684,123.816 220.5,123C 221.044,122.283 221.711,121.783 222.5,121.5 Z"/></g>
<g><path style="opacity:1" fill="#600a12" d="M 286.5,121.5 C 281.695,122.487 276.695,122.821 271.5,122.5C 267.232,119.691 262.898,116.857 258.5,114C 260.56,112.304 262.893,111.137 265.5,110.5C 272.675,113.92 279.675,117.586 286.5,121.5 Z"/></g>
<g><path style="opacity:1" fill="#600b12" d="M 235.5,122.5 C 230.968,122.818 226.634,122.485 222.5,121.5C 247.342,106.912 272.342,92.5785 297.5,78.5C 300.343,79.9208 301.676,81.9208 301.5,84.5C 279.761,97.5615 257.761,110.228 235.5,122.5 Z"/></g>
<g><path style="opacity:1" fill="#eaad85" d="M 252.5,105.5 C 253.833,105.5 255.167,105.5 256.5,105.5C 256.5,106.833 256.5,108.167 256.5,109.5C 254.833,109.5 253.167,109.5 251.5,109.5C 251.433,108.041 251.766,106.708 252.5,105.5 Z"/></g>
<g><path style="opacity:1" fill="#600b11" d="M 209.5,78.5 C 211.308,78.4914 212.975,78.9914 214.5,80C 223.54,85.853 232.873,91.1864 242.5,96C 245.236,97.3622 247.569,99.1956 249.5,101.5C 247.417,102.959 245.25,104.292 243,105.5C 230.309,98.9249 218.142,91.5916 206.5,83.5C 207.26,81.6396 208.26,79.973 209.5,78.5 Z"/></g>
<g><path style="opacity:1" fill="#610e12" d="M 290.5,73.5 C 293.462,73.1167 294.462,74.1167 293.5,76.5C 281.204,82.9817 269.204,89.9817 257.5,97.5C 256.628,95.5342 256.795,93.5342 258,91.5C 260.128,88.3699 262.628,85.5366 265.5,83C 273.704,79.3235 282.037,76.1569 290.5,73.5 Z"/></g>
<g><path style="opacity:1" fill="#620f13" d="M 215.5,73.5 C 224.2,76.0048 232.866,78.8381 241.5,82C 246.515,84.8456 249.848,89.0122 251.5,94.5C 251.167,95.1667 250.833,95.8333 250.5,96.5C 238.703,90.1001 227.036,83.4335 215.5,76.5C 214.438,75.5754 214.438,74.5754 215.5,73.5 Z"/></g>
<g><path style="opacity:1" fill="#ed2c10" d="M 124.5,50.5 C 123.5,50.5 122.5,50.5 121.5,50.5C 121.5,49.5 121.5,48.5 121.5,47.5C 120.5,47.5 119.5,47.5 118.5,47.5C 118.833,100.837 118.5,154.171 117.5,207.5C 116.5,153.837 116.167,100.171 116.5,46.5C 119.518,46.3354 122.518,46.502 125.5,47C 123.273,47.704 122.94,48.8706 124.5,50.5 Z"/></g>
<g><path style="opacity:1" fill="#f82808" d="M 383.5,50.5 C 298.167,50.5 212.833,50.5 127.5,50.5C 169.828,49.1667 212.495,48.5001 255.5,48.5C 298.505,48.5001 341.172,49.1667 383.5,50.5 Z"/></g>
<g><path style="opacity:1" fill="#61000c" d="M 103.5,29.5 C 152.666,28.8333 201.999,28.5 251.5,28.5C 301.171,28.5001 350.505,29.1667 399.5,30.5C 300.763,30.8308 202.096,30.4975 103.5,29.5 Z"/></g>
<g><path style="opacity:1" fill="#361b1d" d="M 106.5,27.5 C 106.5,27.1667 106.5,26.8333 106.5,26.5C 205.5,26.5 304.5,26.5 403.5,26.5C 403.832,89.6689 403.499,152.669 402.5,215.5C 402.5,153.167 402.5,90.8333 402.5,28.5C 304.001,27.5006 205.335,27.1672 106.5,27.5 Z"/></g>
<g><path style="opacity:1" fill="#5c0410" d="M 411.5,228.5 C 411.833,228.5 412.167,228.5 412.5,228.5C 411.499,235.651 410.166,242.817 408.5,250C 408.014,253.887 409.681,255.72 413.5,255.5C 413.5,256.5 413.5,257.5 413.5,258.5C 413.284,265.622 414.117,272.622 416,279.5C 418.844,291.66 425.51,300.994 436,307.5C 436.945,307.095 437.612,306.428 438,305.5C 438.44,303.134 438.94,300.801 439.5,298.5C 440.167,300.167 440.833,301.833 441.5,303.5C 431.631,336.248 415.298,365.248 392.5,390.5C 389.04,389.74 388.707,388.24 391.5,386C 390.748,385.329 390.414,384.496 390.5,383.5C 392.386,375.614 392.886,367.614 392,359.5C 390.929,353.678 388.095,349.012 383.5,345.5C 382.678,343.272 381.345,342.605 379.5,343.5C 375.665,350.338 373.665,357.672 373.5,365.5C 372.346,371.987 372.179,378.654 373,385.5C 374.413,388.661 376.08,391.661 378,394.5C 379.3,397.526 379.8,400.526 379.5,403.5C 348.676,434.248 312.009,454.581 269.5,464.5C 268.61,461.052 266.943,458.052 264.5,455.5C 255.357,448.307 246.857,448.974 239,457.5C 237.097,459.441 236.264,461.774 236.5,464.5C 232.037,464.577 227.704,463.91 223.5,462.5C 142.722,435.054 89.0549,380.721 62.5,299.5C 64.2805,295.273 65.1138,290.606 65,285.5C 65.3333,285.833 65.6667,286.167 66,286.5C 66.2784,285.584 66.7784,284.918 67.5,284.5C 66.4611,290.797 66.2944,297.13 67,303.5C 67.1962,305.286 68.0295,306.619 69.5,307.5C 80.98,299.898 87.98,289.232 90.5,275.5C 91.1174,275.389 91.6174,275.056 92,274.5C 92.4992,269.845 92.6658,265.179 92.5,260.5C 94.0358,262.025 95.0358,264.025 95.5,266.5C 96.5237,267.853 97.857,268.52 99.5,268.5C 100.051,265.193 100.384,261.86 100.5,258.5C 111.049,289.745 126.883,318.079 148,343.5C 175.236,376.729 208.736,401.563 248.5,418C 250.833,418.667 253.167,418.667 255.5,418C 257.927,416.409 260.593,415.575 263.5,415.5C 265.967,415.245 267.967,414.245 269.5,412.5C 275.42,409.54 281.42,406.54 287.5,403.5C 290.204,403.33 291.871,401.997 292.5,399.5C 294.372,398.489 296.372,397.655 298.5,397C 318.896,382.436 337.563,365.936 354.5,347.5C 356.587,346.415 357.92,344.749 358.5,342.5C 363.864,335.476 369.198,328.476 374.5,321.5C 376.084,320.618 377.751,319.785 379.5,319C 378.464,317.224 378.464,315.391 379.5,313.5C 380.34,311.147 381.674,309.147 383.5,307.5C 384.496,307.586 385.329,307.252 386,306.5C 387.43,303.647 388.263,300.647 388.5,297.5C 390.993,293.694 392.993,289.694 394.5,285.5C 396.268,283.078 397.768,280.412 399,277.5C 400,276.833 401,276.167 402,275.5C 402.293,270.312 403.127,265.312 404.5,260.5C 407.257,249.903 409.59,239.236 411.5,228.5 Z"/></g>
<g><path style="opacity:1" fill="#f2c584" d="M 153.5,376.5 C 156.422,378.594 158.922,381.261 161,384.5C 168.931,397.221 171.264,410.888 168,425.5C 167.185,427.623 166.185,429.623 165,431.5C 146.384,416.061 142.551,397.727 153.5,376.5 Z"/></g>
<g><path style="opacity:1" fill="#61020e" d="M 234.5,367.5 C 231.77,370.051 232.437,371.384 236.5,371.5C 237.671,372.345 239.005,373.011 240.5,373.5C 242.435,374.15 244.435,374.483 246.5,374.5C 247.991,371.909 250.325,370.909 253.5,371.5C 253.967,373.711 254.967,375.711 256.5,377.5C 257.468,376.511 258.635,375.844 260,375.5C 261.825,375.943 263.658,376.277 265.5,376.5C 261.3,378.645 256.967,380.645 252.5,382.5C 243.508,379.326 234.841,375.492 226.5,371C 224.937,370.241 223.937,369.074 223.5,367.5C 225.5,366.833 226.833,365.5 227.5,363.5C 229.394,362.952 231.06,361.952 232.5,360.5C 233.944,362.608 234.61,364.941 234.5,367.5 Z"/></g>
<g><path style="opacity:1" fill="#3e2222" d="M 193.5,373.5 C 195.749,374.08 197.415,375.413 198.5,377.5C 196.251,376.92 194.585,375.587 193.5,373.5 Z"/></g>
<g><path style="opacity:1" fill="#f4e8e9" d="M 239.5,359.5 C 240.209,360.404 241.209,360.737 242.5,360.5C 242.52,362.143 241.853,363.476 240.5,364.5C 241.723,365.614 243.056,365.781 244.5,365C 243.316,363.855 243.316,362.688 244.5,361.5C 246.903,361.695 248.57,362.862 249.5,365C 246.365,367.569 245.365,370.736 246.5,374.5C 244.435,374.483 242.435,374.15 240.5,373.5C 240.48,371.857 241.147,370.524 242.5,369.5C 239.588,366.462 238.588,366.796 239.5,370.5C 238.675,371.386 237.675,371.719 236.5,371.5C 232.437,371.384 231.77,370.051 234.5,367.5C 235.814,364.723 236.814,361.723 237.5,358.5C 238.183,358.863 238.85,359.196 239.5,359.5 Z"/></g>
<g><path style="opacity:1" fill="#7a3e45" d="M 240.5,373.5 C 239.005,373.011 237.671,372.345 236.5,371.5C 237.675,371.719 238.675,371.386 239.5,370.5C 238.588,366.796 239.588,366.462 242.5,369.5C 241.147,370.524 240.48,371.857 240.5,373.5 Z"/></g>
<g><path style="opacity:1" fill="#cb8a6c" d="M 116.5,352.5 C 116.263,355.647 115.43,358.647 114,361.5C 113.501,366.155 113.334,370.821 113.5,375.5C 112.35,370.684 112.184,365.684 113,360.5C 113.705,357.524 114.871,354.858 116.5,352.5 Z"/></g>
<g><path style="opacity:1" fill="#c72310" d="M 314.5,344.5 C 311.631,347.532 308.964,350.699 306.5,354C 303.586,355.784 300.586,357.284 297.5,358.5C 302.87,353.462 308.537,348.796 314.5,344.5 Z"/></g>
<g><path style="opacity:1" fill="#ebb47e" d="M 383.5,345.5 C 382.167,345.5 380.833,345.5 379.5,345.5C 379.543,348.91 379.043,352.243 378,355.5C 377.667,354.833 377.333,354.167 377,353.5C 374.861,362.002 374.028,370.668 374.5,379.5C 373.514,375.03 373.181,370.363 373.5,365.5C 373.665,357.672 375.665,350.338 379.5,343.5C 381.345,342.605 382.678,343.272 383.5,345.5 Z"/></g>
<g><path style="opacity:1" fill="#f3c684" d="M 113.5,375.5 C 113.334,370.821 113.501,366.155 114,361.5C 115.43,358.647 116.263,355.647 116.5,352.5C 118.616,349.211 120.949,346.044 123.5,343C 124.449,342.383 125.282,342.549 126,343.5C 133.367,358.407 134.367,373.74 129,389.5C 127.719,392.603 125.886,395.269 123.5,397.5C 117.992,391.152 114.659,383.819 113.5,375.5 Z"/></g>
<g><path style="opacity:1" fill="#920c0b" d="M 335.5,336.5 C 330.822,342.177 325.489,347.177 319.5,351.5C 324.204,345.795 329.537,340.795 335.5,336.5 Z"/></g>
<g><path style="opacity:1" fill="#402123" d="M 358.5,342.5 C 357.92,344.749 356.587,346.415 354.5,347.5C 355.08,345.251 356.413,343.585 358.5,342.5 Z"/></g>
<g><path style="opacity:1" fill="#f4e9e8" d="M 286.5,338.5 C 288.484,338.383 290.15,339.05 291.5,340.5C 290.652,342.409 290.318,344.409 290.5,346.5C 289.596,347.209 289.263,348.209 289.5,349.5C 287.095,349.134 284.762,348.467 282.5,347.5C 280.865,348.046 279.199,348.38 277.5,348.5C 277.5,346.167 277.5,343.833 277.5,341.5C 280.485,343.445 283.818,344.445 287.5,344.5C 287.167,342.5 286.833,340.5 286.5,338.5 Z"/></g>
<g><path style="opacity:1" fill="#b1190c" d="M 175.5,341.5 C 179.771,344.101 183.437,347.434 186.5,351.5C 182.229,348.899 178.563,345.566 175.5,341.5 Z"/></g>
<g><path style="opacity:1" fill="#77050b" d="M 164.5,329.5 C 168.408,333.285 172.075,337.285 175.5,341.5C 173.976,340.826 172.642,339.826 171.5,338.5C 170.707,338.931 169.873,339.265 169,339.5C 166.057,338.76 165.891,337.76 168.5,336.5C 166.787,334.336 165.454,332.003 164.5,329.5 Z"/></g>
<g><path style="opacity:1" fill="#f1c284" d="M 102.5,302.5 C 104.48,303.848 105.647,305.848 106,308.5C 107.971,322.282 105.637,335.282 99,347.5C 97.0218,350.645 94.5218,353.312 91.5,355.5C 83.3723,340.706 83.539,326.04 92,311.5C 95.2922,308.127 98.7922,305.127 102.5,302.5 Z"/></g>
<g><path style="opacity:1" fill="#73030a" d="M 346.5,323.5 C 345.627,325.886 344.127,327.886 342,329.5C 342.055,331.915 342.388,334.248 343,336.5C 342.586,336.957 342.086,337.291 341.5,337.5C 340.833,336.167 340.167,334.833 339.5,333.5C 338.378,334.63 337.044,335.297 335.5,335.5C 338.458,330.874 342.124,326.874 346.5,323.5 Z"/></g>
<g><path style="opacity:1" fill="#5d0714" d="M 264.5,307.5 C 265.609,307.443 266.609,307.11 267.5,306.5C 267.5,309.167 267.5,311.833 267.5,314.5C 269.167,314.5 270.833,314.5 272.5,314.5C 272.281,313.325 272.614,312.325 273.5,311.5C 273.833,313.333 274.167,315.167 274.5,317C 274.453,319.295 273.787,321.129 272.5,322.5C 271.549,323.919 271.216,325.585 271.5,327.5C 275.5,327.5 279.5,327.5 283.5,327.5C 279.503,328.067 275.503,328.9 271.5,330C 273.833,330.333 276.167,330.667 278.5,331C 276.963,332.11 276.297,333.61 276.5,335.5C 275.325,335.281 274.325,335.614 273.5,336.5C 274.167,337.833 274.833,339.167 275.5,340.5C 274.495,343.485 273.328,346.152 272,348.5C 273.333,347.833 274.667,347.167 276,346.5C 276.236,344.236 276.736,342.069 277.5,340C 279.574,340.227 281.574,340.061 283.5,339.5C 284.192,340.025 284.692,340.692 285,341.5C 285.232,340.263 285.732,339.263 286.5,338.5C 286.833,340.5 287.167,342.5 287.5,344.5C 283.818,344.445 280.485,343.445 277.5,341.5C 277.5,343.833 277.5,346.167 277.5,348.5C 279.199,348.38 280.865,348.046 282.5,347.5C 284.762,348.467 287.095,349.134 289.5,349.5C 289.263,348.209 289.596,347.209 290.5,346.5C 290.5,347.833 290.5,349.167 290.5,350.5C 286.097,349.893 284.764,351.56 286.5,355.5C 285.207,357.103 284.207,358.769 283.5,360.5C 284.082,362.669 284.082,365.002 283.5,367.5C 277.973,371.338 271.973,374.338 265.5,376.5C 263.658,376.277 261.825,375.943 260,375.5C 258.635,375.844 257.468,376.511 256.5,377.5C 254.967,375.711 253.967,373.711 253.5,371.5C 250.325,370.909 247.991,371.909 246.5,374.5C 245.365,370.736 246.365,367.569 249.5,365C 248.57,362.862 246.903,361.695 244.5,361.5C 243.221,360.032 241.554,359.365 239.5,359.5C 238.85,359.196 238.183,358.863 237.5,358.5C 236.814,361.723 235.814,364.723 234.5,367.5C 234.61,364.941 233.944,362.608 232.5,360.5C 231.06,361.952 229.394,362.952 227.5,363.5C 226.833,365.5 225.5,366.833 223.5,367.5C 219.788,367.123 216.788,365.456 214.5,362.5C 213.375,360.871 212.041,359.371 210.5,358C 215.407,357.194 216.407,354.861 213.5,351C 214.624,350.751 215.624,350.251 216.5,349.5C 215.395,348.108 214.061,346.941 212.5,346C 213.416,345.722 214.082,345.222 214.5,344.5C 213.746,341.977 213.08,339.311 212.5,336.5C 214.386,335.594 216.22,334.594 218,333.5C 218.483,332.552 218.649,331.552 218.5,330.5C 220.288,330.215 221.955,330.548 223.5,331.5C 222.624,332.251 221.624,332.751 220.5,333C 223.824,336.497 225.824,335.664 226.5,330.5C 223.241,329.02 219.908,328.02 216.5,327.5C 220.167,327.5 223.833,327.5 227.5,327.5C 227.923,325.219 227.256,323.552 225.5,322.5C 225.205,320.265 225.539,318.265 226.5,316.5C 229.167,321.833 231.833,321.833 234.5,316.5C 235.461,318.265 235.795,320.265 235.5,322.5C 233.744,323.552 233.077,325.219 233.5,327.5C 237.167,327.5 240.833,327.5 244.5,327.5C 243.78,324.042 243.113,320.542 242.5,317C 243.113,313.458 243.78,309.958 244.5,306.5C 241.102,306.18 237.768,306.513 234.5,307.5C 231.888,314.132 229.222,314.132 226.5,307.5C 223.232,306.513 219.898,306.18 216.5,306.5C 219.008,304.763 222.008,303.93 225.5,304C 224.833,303.667 224.167,303.333 223.5,303C 244.833,302.333 266.167,302.333 287.5,303C 276.167,303.333 264.833,303.667 253.5,304C 255.833,304.333 258.167,304.667 260.5,305C 262.32,305.2 263.653,306.034 264.5,307.5 Z"/></g>
<g><path style="opacity:1" fill="#f6edea" d="M 253.5,371.5 C 253.322,361.182 257.489,358.849 266,364.5C 266.471,374.898 262.305,377.232 253.5,371.5 Z"/></g>
<g><path style="opacity:1" fill="#68202b" d="M 258.5,364.5 C 263.493,364.997 264.493,367.164 261.5,371C 256.382,370.824 255.382,368.658 258.5,364.5 Z"/></g>
<g><path style="opacity:1" fill="#6c343f" d="M 239.5,359.5 C 241.554,359.365 243.221,360.032 244.5,361.5C 243.316,362.688 243.316,363.855 244.5,365C 243.056,365.781 241.723,365.614 240.5,364.5C 241.853,363.476 242.52,362.143 242.5,360.5C 241.209,360.737 240.209,360.404 239.5,359.5 Z"/></g>
<g><path style="opacity:1" fill="#f0e4e5" d="M 283.5,360.5 C 277.936,367.617 273.269,367.117 269.5,359C 270,354.5 272.5,352 277,351.5C 281.68,352.681 283.847,355.681 283.5,360.5 Z"/></g>
<g><path style="opacity:1" fill="#62141e" d="M 274.5,355.5 C 279.159,355.015 280.492,356.848 278.5,361C 273.728,361.81 272.395,359.977 274.5,355.5 Z"/></g>
<g><path style="opacity:1" fill="#f3e5e4" d="M 227.5,363.5 C 219.804,360.882 218.804,356.715 224.5,351C 229.606,349.605 232.939,351.439 234.5,356.5C 233.171,359.695 231.505,360.028 229.5,357.5C 230.903,354.399 229.903,353.233 226.5,354C 225.426,354.739 224.759,355.739 224.5,357C 226.201,358.86 227.201,361.027 227.5,363.5 Z"/></g>
<g><path style="opacity:1" fill="#f5eaea" d="M 223.5,345.5 C 224.434,343.761 224.434,342.095 223.5,340.5C 222.548,342.045 222.215,343.712 222.5,345.5C 221.866,346.947 220.699,347.613 219,347.5C 216.791,347.443 215.291,346.443 214.5,344.5C 214.338,342.473 214.505,340.473 215,338.5C 216.011,337.663 217.178,337.33 218.5,337.5C 217.769,339.599 217.769,341.599 218.5,343.5C 219.221,341.314 219.887,339.147 220.5,337C 226.519,336.462 228.686,339.295 227,345.5C 225.708,346.791 224.542,346.791 223.5,345.5 Z"/></g>
<g><path style="opacity:1" fill="#835661" d="M 223.5,345.5 C 223.167,345.5 222.833,345.5 222.5,345.5C 222.215,343.712 222.548,342.045 223.5,340.5C 224.434,342.095 224.434,343.761 223.5,345.5 Z"/></g>
<g><path style="opacity:1" fill="#d1aeb3" d="M 272.5,322.5 C 272.5,323.833 272.5,325.167 272.5,326.5C 275.833,326.5 279.167,326.5 282.5,326.5C 282.5,325.167 282.5,323.833 282.5,322.5C 283.451,323.919 283.784,325.585 283.5,327.5C 279.5,327.5 275.5,327.5 271.5,327.5C 271.216,325.585 271.549,323.919 272.5,322.5 Z"/></g>
<g><path style="opacity:1" fill="#f5cb84" d="M 103.5,307.5 C 104.656,314.989 104.822,322.655 104,330.5C 103.105,332.804 102.271,335.138 101.5,337.5C 100.476,336.147 99.143,335.48 97.5,335.5C 97.5789,337.666 98.2455,339.666 99.5,341.5C 99.363,343.107 98.6964,344.441 97.5,345.5C 96.3534,337.579 95.52,337.579 95,345.5C 94.4572,342.132 94.6239,338.799 95.5,335.5C 94.5,335.5 93.5,335.5 92.5,335.5C 92.2175,340.579 91.2175,340.746 89.5,336C 90.7472,334.506 90.7472,333.006 89.5,331.5C 88.8333,332.833 88.1667,334.167 87.5,335.5C 86.6486,331.343 87.3153,327.343 89.5,323.5C 90.2508,324.376 90.7508,325.376 91,326.5C 89.1673,320.886 90.5006,316.219 95,312.5C 95.4702,314.774 96.4702,316.774 98,318.5C 98.3333,317.833 98.6667,317.167 99,316.5C 99.2492,317.624 99.7492,318.624 100.5,319.5C 102.959,317.05 103.125,314.383 101,311.5C 99.5753,316.73 98.4086,316.73 97.5,311.5C 97.6082,310.558 97.9415,309.725 98.5,309C 100.382,308.802 102.048,308.302 103.5,307.5 Z"/></g>
<g><path style="opacity:1" fill="#47171b" d="M 379.5,313.5 C 378.464,315.391 378.464,317.224 379.5,319C 377.751,319.785 376.084,320.618 374.5,321.5C 375.383,318.296 377.05,315.629 379.5,313.5 Z"/></g>
<g><path style="opacity:1" fill="#69373e" d="M 282.5,314.5 C 281.233,317.061 281.233,319.728 282.5,322.5C 281.213,321.129 280.547,319.295 280.5,317C 280.833,315.167 281.167,313.333 281.5,311.5C 282.386,312.325 282.719,313.325 282.5,314.5 Z"/></g>
<g><path style="opacity:1" fill="#f3c685" d="M 400.5,303.5 C 402.655,303.372 404.655,303.872 406.5,305C 412.611,309.444 416.777,315.277 419,322.5C 420.338,333.092 419.338,343.426 416,353.5C 415.612,354.428 414.945,355.095 414,355.5C 411.733,353.233 409.4,350.9 407,348.5C 399.668,334.286 397.501,319.286 400.5,303.5 Z"/></g>
<g><path style="opacity:1" fill="#b89598" d="M 264.5,308.5 C 265.468,310.607 265.802,312.941 265.5,315.5C 263.5,315.5 261.5,315.5 259.5,315.5C 259.5,314.167 259.5,312.833 259.5,311.5C 260.404,312.209 260.737,313.209 260.5,314.5C 261.833,314.5 263.167,314.5 264.5,314.5C 264.5,312.5 264.5,310.5 264.5,308.5 Z"/></g>
<g><path style="opacity:1" fill="#f8f0f1" d="M 264.5,307.5 C 264.5,307.833 264.5,308.167 264.5,308.5C 264.5,310.5 264.5,312.5 264.5,314.5C 263.167,314.5 261.833,314.5 260.5,314.5C 260.737,313.209 260.404,312.209 259.5,311.5C 253.501,311.002 251.334,313.669 253,319.5C 254.182,321.357 255.849,322.357 258,322.5C 259.909,321.844 261.742,321.344 263.5,321C 265.527,322.396 265.86,324.062 264.5,326C 251.053,330.215 245.22,325.381 247,311.5C 251.802,305.674 257.636,304.341 264.5,307.5 Z"/></g>
<g><path style="opacity:1" fill="#fbf6f7" d="M 267.5,306.5 C 274.167,306.5 280.833,306.5 287.5,306.5C 287.5,309.167 287.5,311.833 287.5,314.5C 285.833,314.5 284.167,314.5 282.5,314.5C 282.719,313.325 282.386,312.325 281.5,311.5C 281.167,313.333 280.833,315.167 280.5,317C 280.547,319.295 281.213,321.129 282.5,322.5C 282.5,323.833 282.5,325.167 282.5,326.5C 279.167,326.5 275.833,326.5 272.5,326.5C 272.5,325.167 272.5,323.833 272.5,322.5C 273.787,321.129 274.453,319.295 274.5,317C 274.167,315.167 273.833,313.333 273.5,311.5C 272.614,312.325 272.281,313.325 272.5,314.5C 270.833,314.5 269.167,314.5 267.5,314.5C 267.5,311.833 267.5,309.167 267.5,306.5 Z"/></g>
<g><path style="opacity:1" fill="#f8f1f2" d="M 216.5,306.5 C 219.898,306.18 223.232,306.513 226.5,307.5C 229.222,314.132 231.888,314.132 234.5,307.5C 237.768,306.513 241.102,306.18 244.5,306.5C 243.78,309.958 243.113,313.458 242.5,317C 243.113,320.542 243.78,324.042 244.5,327.5C 240.833,327.5 237.167,327.5 233.5,327.5C 233.077,325.219 233.744,323.552 235.5,322.5C 236.797,320.307 236.797,317.973 235.5,315.5C 234.893,315.624 234.56,315.957 234.5,316.5C 231.833,321.833 229.167,321.833 226.5,316.5C 226.44,315.957 226.107,315.624 225.5,315.5C 224.203,317.973 224.203,320.307 225.5,322.5C 227.256,323.552 227.923,325.219 227.5,327.5C 223.833,327.5 220.167,327.5 216.5,327.5C 216.5,325.833 216.5,324.167 216.5,322.5C 217.5,322.5 218.5,322.5 219.5,322.5C 219.5,318.833 219.5,315.167 219.5,311.5C 218.5,311.5 217.5,311.5 216.5,311.5C 216.5,309.833 216.5,308.167 216.5,306.5 Z"/></g>
<g><path style="opacity:1" fill="#a57681" d="M 234.5,316.5 C 234.56,315.957 234.893,315.624 235.5,315.5C 236.797,317.973 236.797,320.307 235.5,322.5C 235.795,320.265 235.461,318.265 234.5,316.5 Z"/></g>
<g><path style="opacity:1" fill="#c9a8ad" d="M 226.5,316.5 C 225.539,318.265 225.205,320.265 225.5,322.5C 224.203,320.307 224.203,317.973 225.5,315.5C 226.107,315.624 226.44,315.957 226.5,316.5 Z"/></g>
<g><path style="opacity:1" fill="#421919" d="M 388.5,297.5 C 388.263,300.647 387.43,303.647 386,306.5C 385.329,307.252 384.496,307.586 383.5,307.5C 384.632,303.902 386.299,300.569 388.5,297.5 Z"/></g>
<g><path style="opacity:1" fill="#7c0607" d="M 367.5,293.5 C 365.863,297.118 363.863,300.451 361.5,303.5C 362.344,299.355 364.344,296.022 367.5,293.5 Z"/></g>
<g><path style="opacity:1" fill="#fcf3f4" d="M 211.5,291.5 C 239.175,291.167 266.841,291.5 294.5,292.5C 280.667,292.833 266.833,293.167 253,293.5C 238.817,293.499 224.983,292.833 211.5,291.5 Z"/></g>
<g><path style="opacity:1" fill="#e6cfd0" d="M 216.5,285.5 C 241.167,285.5 265.833,285.5 290.5,285.5C 290.5,286.5 290.5,287.5 290.5,288.5C 265.491,288.833 240.491,288.5 215.5,287.5C 215.863,286.817 216.196,286.15 216.5,285.5 Z"/></g>
<g><path style="opacity:1" fill="#b47b88" d="M 268.5,280.5 C 268.5,281.5 268.5,282.5 268.5,283.5C 272.167,283.5 275.833,283.5 279.5,283.5C 275.702,284.483 271.702,284.817 267.5,284.5C 267.232,282.901 267.566,281.568 268.5,280.5 Z"/></g>
<g><path style="opacity:1" fill="#ba818e" d="M 247.5,280.5 C 247.5,281.5 247.5,282.5 247.5,283.5C 251.167,283.5 254.833,283.5 258.5,283.5C 254.702,284.483 250.702,284.817 246.5,284.5C 246.232,282.901 246.566,281.568 247.5,280.5 Z"/></g>
<g><path style="opacity:1" fill="#bb8b94" d="M 226.5,279.5 C 226.5,280.833 226.5,282.167 226.5,283.5C 229.833,283.5 233.167,283.5 236.5,283.5C 236.5,282.167 236.5,280.833 236.5,279.5C 237.451,280.919 237.784,282.585 237.5,284.5C 233.5,284.5 229.5,284.5 225.5,284.5C 225.216,282.585 225.549,280.919 226.5,279.5 Z"/></g>
<g><path style="opacity:1" fill="#332522" d="M 388.5,273.5 C 388.245,275.967 387.245,277.967 385.5,279.5C 385.755,277.033 386.755,275.033 388.5,273.5 Z"/></g>
<g><path style="opacity:1" fill="#481718" d="M 404.5,260.5 C 403.127,265.312 402.293,270.312 402,275.5C 401,276.167 400,276.833 399,277.5C 397.768,280.412 396.268,283.078 394.5,285.5C 397.992,277.163 401.326,268.83 404.5,260.5 Z"/></g>
<g><path style="opacity:1" fill="#2f4134" d="M 390.5,266.5 C 390.833,266.5 391.167,266.5 391.5,266.5C 391.357,269.385 390.357,271.718 388.5,273.5C 389.015,271.106 389.681,268.772 390.5,266.5 Z"/></g>
<g><path style="opacity:1" fill="#e9af84" d="M 74.5,387.5 C 68.3776,387.268 62.3776,387.935 56.5,389.5C 56.5,390.5 56.5,391.5 56.5,392.5C 53.9933,390.037 54.66,388.204 58.5,387C 64.0164,386.183 69.3497,386.349 74.5,387.5 Z"/></g>
<g><path style="opacity:1" fill="#f4c885" d="M 428.5,386.5 C 433.844,386.334 439.177,386.501 444.5,387C 447.032,387.619 449.365,388.619 451.5,390C 441.237,404.213 427.404,412.046 410,413.5C 403.294,414.158 397.294,412.492 392,408.5C 391.333,407.833 391.333,407.167 392,406.5C 402.57,396.801 414.737,390.134 428.5,386.5 Z"/></g>
<g><path style="opacity:1" fill="#f1c183" d="M 313.5,457.5 C 302.472,461.665 291.472,465.665 280.5,469.5C 276.856,470.315 273.189,471.148 269.5,472C 265.363,482.57 257.697,486.57 246.5,484C 243.98,482.303 241.647,480.47 239.5,478.5C 243.477,480.658 247.643,482.325 252,483.5C 262.52,482.132 267.687,476.132 267.5,465.5C 266.99,463.912 265.99,462.745 264.5,462C 265.605,459.88 265.605,457.713 264.5,455.5C 266.943,458.052 268.61,461.052 269.5,464.5C 312.009,454.581 348.676,434.248 379.5,403.5C 384.167,399.5 388.5,395.167 392.5,390.5C 415.298,365.248 431.631,336.248 441.5,303.5C 445.615,293.636 448.448,283.302 450,272.5C 451.726,271.424 453.559,271.257 455.5,272C 456.059,272.725 456.392,273.558 456.5,274.5C 438.284,358.694 390.617,419.694 313.5,457.5 Z"/></g>
<g><path style="opacity:1" fill="#f3c884" d="M 74.5,387.5 C 90.0322,389.933 103.366,396.599 114.5,407.5C 103.586,415.357 91.919,416.523 79.5,411C 70.2612,406.723 62.5945,400.557 56.5,392.5C 56.5,391.5 56.5,390.5 56.5,389.5C 62.3776,387.935 68.3776,387.268 74.5,387.5 Z"/></g>
<g><path style="opacity:1" fill="#f4c785" d="M 350.5,376.5 C 354.238,379.626 356.738,383.626 358,388.5C 359.912,406.007 354.078,420.34 340.5,431.5C 333.455,411.334 336.788,393.001 350.5,376.5 Z"/></g>
<g><path style="opacity:1" fill="#651814" d="M 373.5,365.5 C 373.181,370.363 373.514,375.03 374.5,379.5C 375.154,386.144 377.488,392.144 381.5,397.5C 385.346,393.332 388.346,388.665 390.5,383.5C 390.414,384.496 390.748,385.329 391.5,386C 388.707,388.24 389.04,389.74 392.5,390.5C 388.5,395.167 384.167,399.5 379.5,403.5C 379.8,400.526 379.3,397.526 378,394.5C 376.08,391.661 374.413,388.661 373,385.5C 372.179,378.654 372.346,371.987 373.5,365.5 Z"/></g>
<g><path style="opacity:1" fill="#441d1e" d="M 237.5,401.5 C 241.327,401.752 244.66,403.085 247.5,405.5C 243.673,405.248 240.34,403.915 237.5,401.5 Z"/></g>
<g><path style="opacity:1" fill="#2d392f" d="M 271.5,400.5 C 269.544,401.492 267.544,402.492 265.5,403.5C 266.687,401.025 268.687,400.025 271.5,400.5 Z"/></g>
<g><path style="opacity:1" fill="#382826" d="M 292.5,399.5 C 291.871,401.997 290.204,403.33 287.5,403.5C 288.782,401.82 290.449,400.487 292.5,399.5 Z"/></g>
<g><path style="opacity:1" fill="#372221" d="M 269.5,412.5 C 267.967,414.245 265.967,415.245 263.5,415.5C 265.033,413.755 267.033,412.755 269.5,412.5 Z"/></g>
<g><path style="opacity:1" fill="#f3c685" d="M 292.5,454.5 C 291.837,452.527 291.504,450.361 291.5,448C 292.552,441.519 293.552,435.019 294.5,428.5C 298.931,418.4 305.597,410.067 314.5,403.5C 321.728,422.99 316.728,438.823 299.5,451C 297.423,452.705 295.09,453.872 292.5,454.5 Z"/></g>
<g><path style="opacity:1" fill="#f4c885" d="M 211.5,429.5 C 211.705,432.988 212.539,436.321 214,439.5C 214.499,443.821 214.666,448.154 214.5,452.5C 212.194,452.007 209.861,451.674 207.5,451.5C 189.948,440.357 184.114,424.69 190,404.5C 190.718,403.549 191.551,403.383 192.5,404C 201.387,410.703 207.72,419.203 211.5,429.5 Z"/></g>
<g><path style="opacity:1" fill="#f4c884" d="M 108.5,431.5 C 126.401,430.179 143.067,434.012 158.5,443C 149.052,453.286 137.385,456.953 123.5,454C 113.068,451.973 103.902,447.473 96,440.5C 95.3162,439.216 95.4829,438.049 96.5,437C 100.481,434.838 104.481,433.005 108.5,431.5 Z"/></g>
<g><path style="opacity:1" fill="#f3c684" d="M 375.5,431.5 C 384.979,430.94 394.312,431.773 403.5,434C 406.04,435.431 408.373,437.098 410.5,439C 397.242,451.196 381.575,456.196 363.5,454C 356.716,452.288 351.383,448.621 347.5,443C 349.126,441.181 351.126,439.848 353.5,439C 360.846,436.163 368.179,433.663 375.5,431.5 Z"/></g>
<g><path style="opacity:1" fill="#e7ae80" d="M 294.5,428.5 C 293.552,435.019 292.552,441.519 291.5,448C 291.504,450.361 291.837,452.527 292.5,454.5C 292.44,455.043 292.107,455.376 291.5,455.5C 290.336,449.193 290.169,442.859 291,436.5C 291.942,433.626 293.109,430.96 294.5,428.5 Z"/></g>
<g><path style="opacity:1" fill="#d99c71" d="M 211.5,429.5 C 212.958,431.932 214.125,434.599 215,437.5C 215.667,443.167 215.667,448.833 215,454.5C 214.586,454.957 214.086,455.291 213.5,455.5C 211.435,454.143 209.435,452.81 207.5,451.5C 209.861,451.674 212.194,452.007 214.5,452.5C 214.666,448.154 214.499,443.821 214,439.5C 212.539,436.321 211.705,432.988 211.5,429.5 Z"/></g>
<g><path style="opacity:1" fill="#f5c985" d="M 264.5,455.5 C 265.605,457.713 265.605,459.88 264.5,462C 265.99,462.745 266.99,463.912 267.5,465.5C 267.687,476.132 262.52,482.132 252,483.5C 247.643,482.325 243.477,480.658 239.5,478.5C 239.5,478.167 239.5,477.833 239.5,477.5C 239.335,475.173 238.669,473.007 237.5,471C 232.866,470.399 228.866,468.566 225.5,465.5C 222.885,466.269 220.219,466.603 217.5,466.5C 218.031,463.221 220.031,461.887 223.5,462.5C 227.704,463.91 232.037,464.577 236.5,464.5C 236.264,461.774 237.097,459.441 239,457.5C 246.857,448.974 255.357,448.307 264.5,455.5 Z"/></g>
<g><path style="opacity:1" fill="#efb887" d="M 207.5,467.5 C 191.425,465.884 175.425,466.217 159.5,468.5C 166.499,465.103 173.999,463.769 182,464.5C 190.782,464.301 199.282,465.301 207.5,467.5 Z"/></g>
<g><path style="opacity:1" fill="#efbc82" d="M 327.5,464.5 C 331.489,464.116 335.155,464.783 338.5,466.5C 329.984,465.549 321.484,465.549 313,466.5C 312.167,466.833 311.333,467.167 310.5,467.5C 313.28,469.117 316.28,470.284 319.5,471C 315.838,471.281 312.171,471.115 308.5,470.5C 306.285,470.67 304.285,471.337 302.5,472.5C 301.914,472.291 301.414,471.957 301,471.5C 300.51,472.793 300.343,474.127 300.5,475.5C 299.061,473.64 297.395,471.973 295.5,470.5C 295.5,469.5 295.5,468.5 295.5,467.5C 305.991,464.964 316.658,463.964 327.5,464.5 Z"/></g>
<g><path style="opacity:1" fill="#671715" d="M 313.5,457.5 C 311.906,458.983 310.24,460.483 308.5,462C 308.833,462.333 309.167,462.667 309.5,463C 315.681,463.172 321.681,463.672 327.5,464.5C 316.658,463.964 305.991,464.964 295.5,467.5C 295.5,468.5 295.5,469.5 295.5,470.5C 294.178,470.33 293.011,470.663 292,471.5C 290.818,469.643 289.151,468.643 287,468.5C 284.863,469.077 282.696,469.41 280.5,469.5C 291.472,465.665 302.472,461.665 313.5,457.5 Z"/></g>
<g><path style="opacity:1" fill="#f4c884" d="M 207.5,467.5 C 209.225,467.843 209.725,468.843 209,470.5C 200.849,482.34 189.516,487.673 175,486.5C 164.214,487.179 154.381,484.512 145.5,478.5C 148.788,473.208 153.455,469.875 159.5,468.5C 175.425,466.217 191.425,465.884 207.5,467.5 Z"/></g>
<g><path style="opacity:1" fill="#f4c885" d="M 338.5,466.5 C 347.299,467.898 354.632,471.898 360.5,478.5C 346.045,486.363 330.711,488.53 314.5,485C 308.935,483.059 304.268,479.892 300.5,475.5C 300.343,474.127 300.51,472.793 301,471.5C 301.414,471.957 301.914,472.291 302.5,472.5C 304.285,471.337 306.285,470.67 308.5,470.5C 312.171,471.115 315.838,471.281 319.5,471C 316.28,470.284 313.28,469.117 310.5,467.5C 311.333,467.167 312.167,466.833 313,466.5C 321.484,465.549 329.984,465.549 338.5,466.5 Z"/></g>
</svg>
